<?xml version="1.0" encoding="iso-8859-1"?>
<!-- Generator: Adobe Illustrator 18.0.0, SVG Export Plug-In . SVG Version: 6.00 Build 0)  -->
<!DOCTYPE svg PUBLIC "-//W3C//DTD SVG 1.1//EN" "http://www.w3.org/Graphics/SVG/1.1/DTD/svg11.dtd">
<svg version="1.1" id="Capa_1" xmlns="http://www.w3.org/2000/svg" xmlns:xlink="http://www.w3.org/1999/xlink" x="0px" y="0px"
	 viewBox="0 0 488.547 488.547" style="enable-background:new 0 0 488.547 488.547;" xml:space="preserve">
<path id="XMLID_158_" d="M488.547,244.254c0-0.009,0-0.017,0-0.024C488.516,109.556,378.947,0.005,244.273,0.005
	C109.586,0.005,0,109.58,0,244.27c0,134.689,109.586,244.272,244.273,244.272c134.69,0,244.273-109.583,244.273-244.272v-0.008
	C488.547,244.254,488.547,244.254,488.547,244.254z M386.303,227.79c-0.885-23.674-3.654-46.278-8.047-67.49
	c6.631,2.889,13.083,5.946,19.136,9.295c29.935,16.56,48.909,36.797,55.459,58.195H386.303z M353.359,227.79h-90.916v-92.564
	c27.731,1.247,54.286,5.376,78.635,12.07C347.855,171.863,352.151,199.118,353.359,227.79z M262.443,102.274V36.256
	c26.041,8.819,49.297,35.889,65.809,74.121C307.25,105.982,285.186,103.231,262.443,102.274z M229.483,35.226v66.983
	c-24.27,0.813-47.43,3.581-69.14,8.087C177.564,70.463,202.091,42.743,229.483,35.226z M229.483,135.145v92.645h-94.278
	c1.207-28.615,5.489-55.814,12.247-80.341C172.464,140.561,200.256,136.256,229.483,135.145z M102.262,227.79H35.763
	c8.174-26.7,35.535-50.583,74.546-67.449C105.899,181.543,103.146,204.131,102.262,227.79z M102.262,260.75
	c0.884,23.657,3.638,46.254,8.047,67.457c-39.011-16.866-66.372-40.757-74.546-67.457H102.262z M135.205,260.75h94.278v92.643
	c-29.228-1.109-57.02-5.407-82.031-12.295C140.694,316.563,136.412,289.365,135.205,260.75z M229.483,386.338v66.983
	c-27.393-7.516-51.919-35.237-69.14-75.07C182.039,382.757,205.214,385.525,229.483,386.338z M262.443,452.29v-66.025
	c22.742-0.957,44.807-3.71,65.809-8.103C311.74,416.402,288.484,443.471,262.443,452.29z M262.443,353.314V260.75h90.916
	c-1.208,28.671-5.504,55.918-12.281,80.485C316.729,347.93,290.175,352.059,262.443,353.314z M386.303,260.75h66.548
	c-6.55,21.405-25.541,41.634-55.477,58.195c-6.05,3.347-12.487,6.396-19.118,9.286C382.665,307.02,385.418,284.416,386.303,260.75z
	 M435.582,155.101c-6.871-5.004-14.132-9.856-22.242-14.347c-13.889-7.685-29.273-14.171-45.578-19.667
	c-8.754-26.185-20.213-49.19-33.844-67.893C378.577,74.238,414.644,110.384,435.582,155.101z M154.664,53.187
	c-13.617,18.645-25.042,41.586-33.781,67.675c-26.104,8.754-49.039,20.19-67.691,33.797
	C74.161,110.135,110.132,74.157,154.664,53.187z M53.176,333.88c18.653,13.615,41.602,25.042,67.707,33.798
	c8.754,26.096,20.164,49.038,33.781,67.682C110.132,414.39,74.146,378.412,53.176,333.88z M333.9,435.353
	c13.648-18.702,25.107-41.716,33.861-67.9c16.305-5.496,31.69-11.982,45.578-19.667c8.11-4.49,15.371-9.342,22.242-14.356
	C414.644,378.163,378.577,414.309,333.9,435.353z"/>
<g>
</g>
<g>
</g>
<g>
</g>
<g>
</g>
<g>
</g>
<g>
</g>
<g>
</g>
<g>
</g>
<g>
</g>
<g>
</g>
<g>
</g>
<g>
</g>
<g>
</g>
<g>
</g>
<g>
</g>
</svg>
